# AST/ASF file generated using VICON BodyLanguage
# -----------------------------------------------
:version 1.10
:name VICON
:units
  mass 1.0
  length 0.45
  angle deg
:documentation
   .ast/.asf automatically generated from VICON data using
   VICON BodyBuilder and BodyLanguage model FoxedUp or BRILLIANT.MOD
:root
   order TX TY TZ RX RY RZ
   axis XYZ
   position 0 0 0  
   orientation 0 0 0 
:bonedata
  begin
     id 1 
     name lhipjoint
     direction 0.561145 -0.797705 0.220866 
     length 2.46425 
     axis 0 0 0  XYZ
  end
  begin
     id 2 
     name lfemur
     direction 0.34202 -0.939693 0  
     length 7.95556  
     axis 0 0 20  XYZ
    dof rx ry rz
    limits (-160.0 20.0)
           (-70.0 70.0)
           (-60.0 70.0)
  end
  begin
     id 3 
     name ltibia
     direction 0.34202 -0.939693 0   
     length 7.9832   
     axis 0 0 20   XYZ
    dof rx
    limits (-10.0 170.0)
  end
  begin
     id 4 
     name lfoot
     direction 0.0723927 -0.198897 0.977343   
     length 2.23085   
     axis -90 7.62852e-016 20   XYZ
    dof rx rz
    limits (-45.0 90.0)
           (-70.0 20.0)
  end
  begin
     id 5 
     name ltoes
     direction 1.53826e-011 -4.21988e-011 1   
     length 1.12127   
     axis -90 7.62852e-016 20   XYZ
    dof rx
    limits (-90.0 20.0)
  end
  begin
     id 6 
     name rhipjoint
     direction -0.610499 -0.763299 0.21134   
     length 2.57533  
     axis 0 0 0  XYZ 
  end
  begin
     id 7 
     name rfemur
     direction -0.34202 -0.939693 0   
     length 8.65257   
     axis 0 0 -20   XYZ
    dof rx ry rz
    limits (-160.0 20.0)
           (-70.0 70.0)
           (-70.0 60.0)
  end
  begin
     id 8 
     name rtibia
     direction -0.342021 -0.939692 0   
     length 7.37807   
     axis 0 0 -20   XYZ
    dof rx
    limits (-10.0 170.0)
 end
 begin
     id 9 
     name rfoot
     direction -0.0239304 -0.0543852 0.998233   
     length 1.87018  
     axis -90 -7.62852e-016 -20   XYZ
    dof rx rz
    limits (-45.0 90.0)
           (-20.0 70.0)
  end
  begin
     id 10 
     name rtoes
     direction -1.53584e-011 -4.2242e-011 1   
     length 0.951568   
     axis -90 -7.62852e-016 -20   XYZ
    dof rx
    limits (-90.0 20.0)
  end
  begin
     id 11 
     name lowerback
     direction 0.00322089 0.999033 0.0438587   
     length 2.07568   
     axis 0 0 0   XYZ
    dof rx ry rz
    limits (-20.0 45.0)
           (-30.0 30.0)
           (-30.0 30.0)
  end
  begin
     id 12 
     name upperback
     direction -0.00321932 0.999732 -0.0229403   
     length 2.06253   
     axis 0 0 0   XYZ
    dof rx ry rz
    limits (-20.0 45.0)
           (-30.0 30.0)
           (-30.0 30.0)
  end
  begin
     id 13 
     name thorax
     direction -0.00537537 0.998955 -0.0453918   
     length 2.06975   
     axis 0 0 0   XYZ
    dof rx ry rz
    limits (-20.0 45.0)
           (-30.0 30.0)
           (-30.0 30.0)
  end
  begin
     id 14 
     name lowerneck
     direction -0.00013604 0.994111 0.108363   
     length 1.50836   
     axis 0 0 0   XYZ
    dof rx ry rz
    limits (-20.0 45.0)
           (-30.0 30.0)
           (-30.0 30.0)
  end
  begin
     id 15 
     name upperneck
     direction 0.0397262 0.983859 -0.174482   
     length 1.53037   
     axis 0 0 0   XYZ
    dof rx ry rz
    limits (-20.0 45.0)
           (-30.0 30.0)
           (-30.0 30.0)
  end
  begin
     id 16
     name head
     direction 0.0109991 0.997082 -0.0755378  
     length 1.56928  
     axis 0 0 0   XYZ
    dof rx ry rz
    limits (-20.0 45.0)
           (-30.0 30.0)
           (-30.0 30.0)
  end
  begin
     id 17 
     name lclavicle
     direction 0.964749 0.254 -0.068874  
     length 3.26503  
     axis 0 0 0   XYZ
    dof ry rz
    limits (-20.0 10.0)
           (0.0 20.0)
  end
  begin
     id 18 
     name lhumerus
     direction 1 -4.48941e-011 -2.05079e-027   
     length 5.68236   
     axis 180 -30 -90   XYZ
    dof rx ry rz
    limits (-60.0 90.0)
           (-90.0 90.0)
           (-90.0 90.0)
  end
  begin
     id 19
     name lradius
     direction 1 -4.48956e-011 6.2882e-027   
     length 3.17112   
     axis 180 -30 -90   XYZ
    dof rx
    limits (-10.0 170.0)
  end
  begin
     id 20
     name lwrist
     direction 1 -4.49014e-011 1.73219e-026   
     length 1.58556   
     axis -1.04724e-014 90 90   XYZ
    dof ry
    limits (-180.0 0.0)
 end
  begin
     id 21 
     name lhand
     direction 1 -4.49312e-011 3.46438e-026   
     length 0.632691   
     axis -2.21057e-014 90 90   XYZ
    dof rx rz
    limits (-90.0 90.0)
           (-45.0 45.0)
  end
  begin
     id 22 
     name lfingers
     direction 1 -4.48894e-011 6.92876e-026   
     length 0.510091   
     axis -4.42114e-014 90 90   XYZ
    dof rx
    limits (0.0 90.0)
  end
  begin
     id 23
     name lthumb
     direction 0.707107 -6.34705e-011 0.707107   
     length 0.732392   
     axis -90 45 2.85299e-015   XYZ
    dof rx rz
    limits (-45.0 45.0)
           (-45.0 45.0)
  end
  begin
     id 24 
     name rclavicle
     direction -0.954374 0.280496 -0.102435   
     length 3.25419  
     axis 0 0 0   XYZ 
    dof ry rz
    limits (-10.0 20.0)
           (-20.0 0.0)
  end
  begin
     id 25 
     name rhumerus
     direction -1 -4.48994e-011 -1.07204e-017  
     length 5.8712   
     axis 180 30 90   XYZ
    dof rx ry rz
    limits (-90.0 60.0)
           (-90.0 90.0)
           (-90.0 90.0)
  end
  begin
     id 26 
     name rradius
     direction -1 -4.48972e-011 5.89292e-027   
     length 3.37589   
     axis 180 30 90   XYZ
    dof rx
    limits (-10.0 170.0)
  end
  begin
     id 27 
     name rwrist
     direction -1 -4.48942e-011 1.73219e-026   
     length 1.68794   
     axis -1.04724e-014 -90 -90   XYZ
    dof ry
    limits (-180.0 0.0)
  end
  begin
     id 28
     name rhand
     direction -1 -4.48514e-011 3.46438e-026   
     length 0.603257   
     axis -2.21057e-014 -90 -90   XYZ
    dof rx rz
    limits (-90.0 90.0)
           (-45.0 45.0)
  end
  begin
     id 29
     name rfingers
     direction -1 -4.50028e-011 6.92876e-026   
     length 0.486362   
     axis -4.42114e-014 -90 -90   XYZ
    dof rx
    limits (0.0 90.0)
  end
  begin
     id 30
     name rthumb
     direction -0.707107 -6.34926e-011 0.707107   
     length 0.698321   
     axis -90 -45 -2.85299e-015   XYZ
    dof rx rz
    limits (-45.0 45.0)
           (-45.0 45.0)
  end
:hierarchy
  begin
    root lhipjoint rhipjoint lowerback
    lhipjoint lfemur
    lfemur ltibia
    ltibia lfoot
    lfoot ltoes
    rhipjoint rfemur
    rfemur rtibia
    rtibia rfoot
    rfoot rtoes
    lowerback upperback
    upperback thorax
    thorax lowerneck lclavicle rclavicle
    lowerneck upperneck
    upperneck head
    lclavicle lhumerus
    lhumerus lradius
    lradius lwrist
    lwrist lhand lthumb
    lhand lfingers
    rclavicle rhumerus
    rhumerus rradius
    rradius rwrist
    rwrist rhand rthumb
    rhand rfingers
  end

#!OML:ASF I:\Segmentation\Patient Classification 1\Patient 1\Session 1\Patient1.ASF
:FULLY-SPECIFIED
:DEGREES
430
root -12.6982 17.8617 0.61916 189.347 -65.9751 -177.463
lowerback -11.0181 -0.915552 -1.19937
upperback 1.79126 -1.17783 1.438
thorax 8.15677 -0.670188 1.99205
lowerneck -2.75963 -15.3079 -15.8019
upperneck 10.9459 -22.7107 17.7831
head 7.69906 -10.9483 5.8541
rclavicle 3.3048e-014 -2.78299e-015
rhumerus -36.1277 -7.06931 -75.5763
rradius 40.6693
rwrist 12.1515
rhand -18.5342 28.6943
rfingers 7.12502
rthumb 7.75471 -1.14347
lclavicle 3.3048e-014 -2.78299e-015
lhumerus -31.1283 -1.63808 87.1415
lradius 34.5221
lwrist 16.3798
lhand -14.2172 35.6134
lfingers 7.12502
lthumb 11.9197 65.254
rfemur -18.445 9.59522 25.8793
rtibia 37.1478
rfoot 11.7602 21.9292
rtoes 35.444
lfemur -48.7381 -16.8801 -4.48593
ltibia 31.5415
lfoot -14.9639 -3.27087
ltoes -26.3693
431
root -12.7633 17.9809 0.592751 189.317 -64.5149 -177.346
lowerback -10.9824 -0.841025 -1.11799
upperback 1.67982 -1.09225 1.46483
thorax 8.01107 -0.624052 1.99021
lowerneck -2.66607 -15.2381 -15.8662
upperneck 11.0545 -22.6379 17.7042
head 7.70162 -10.9253 5.85776
rclavicle 5.15101e-014 -1.96797e-014
rhumerus -36.2243 -6.78443 -75.6322
rradius 40.5949
rwrist 12.1568
rhand -18.7643 29.2122
rfingers 7.12502
rthumb 7.53269 -0.633708
lclavicle 5.15101e-014 -1.96797e-014
lhumerus -31.4001 -1.25001 86.9265
lradius 34.4924
lwrist 16.3995
lhand -14.6362 35.4721
lfingers 7.12502
lthumb 11.5156 65.1357
rfemur -19.575 13.4913 24.7243
rtibia 37.3625
rfoot 10.4869 19.6666
rtoes 35.2826
lfemur -48.5489 -17.4085 -3.88106
ltibia 31.129
lfoot -14.8599 -4.14454
ltoes -28.4866
432
root -12.8473 17.8832 0.577645 189.064 -63.1546 -177.133
lowerback -10.8517 -0.799999 -1.03802
upperback 1.62475 -1.05231 1.50103
thorax 7.87402 -0.600936 1.9914
lowerneck -2.57834 -15.1475 -15.9574
upperneck 11.1737 -22.5696 17.7643
head 7.73107 -10.9007 5.90768
rclavicle -3.19298e-014 -8.15017e-015
rhumerus -36.3008 -6.40983 -75.7579
rradius 40.6557
rwrist 12.1506
rhand -18.6316 29.1571
rfingers 7.12502
rthumb 7.66073 -0.684171
lclavicle -3.19298e-014 -8.15017e-015
lhumerus -31.69 -0.797046 86.6348
lradius 34.565
lwrist 16.4265
lhand -15.0983 34.8922
lfingers 7.12502
lthumb 11.07 64.5803
rfemur -18.2797 10.3289 25.597
rtibia 37.2827
rfoot 14.2074 21.7464
rtoes 35.8213
lfemur -48.7352 -17.7714 -3.38578
ltibia 31.0722
lfoot -14.0272 -5.06297
ltoes -30.1725
433
root -12.9234 17.8747 0.557944 188.916 -61.7204 -176.977
lowerback -10.8291 -0.714252 -0.89678
upperback 1.6116 -0.960134 1.52888
thorax 7.84073 -0.550506 1.95736
lowerneck -2.55781 -15.0701 -16.0604
upperneck 11.2183 -22.4773 17.7805
head 7.7395 -10.8624 5.94459
rclavicle -7.04692e-014 -1.98785e-014
rhumerus -36.2894 -6.14557 -75.8258
rradius 40.6313
rwrist 12.0446
rhand -18.2938 28.9742
rfingers 7.12502
rthumb 7.98682 -0.854897
lclavicle -7.04692e-014 -1.98785e-014
lhumerus -31.9586 -0.460468 86.4063
lradius 34.6733
lwrist 16.4689
lhand -15.3195 34.3051
lfingers 7.12502
lthumb 10.8566 64.0044
rfemur -17.953 10.4569 25.5067
rtibia 37.4167
rfoot 15.4303 22.1782
rtoes 36.2261
lfemur -48.511 -17.6643 -3.24413
ltibia 30.8164
lfoot -13.0139 -6.2683
ltoes -31.2928
434
root -12.9997 17.8762 0.537416 189.062 -60.2749 -177.136
lowerback -10.8254 -0.614167 -0.87703
upperback 1.60088 -0.828108 1.51378
thorax 7.82081 -0.484793 1.95328
lowerneck -2.5511 -15.0024 -16.1314
upperneck 11.2247 -22.3713 17.7247
head 7.7222 -10.8182 5.95599
rclavicle 7.85448e-014 -1.15295e-014
rhumerus -36.2457 -6.20111 -75.79
rradius 40.4806
rwrist 12.1288
rhand -18.0393 29.1164
rfingers 7.12502
rthumb 8.23239 -0.703199
lclavicle 7.85448e-014 -1.15295e-014
lhumerus -32.1545 -0.18609 86.2277
lradius 34.6287
lwrist 16.4568
lhand -15.3053 34.2538
lfingers 7.12502
lthumb 10.8703 63.9525
rfemur -17.6798 10.6482 25.2128
rtibia 37.1237
rfoot 16.7541 22.0642
rtoes 36.6431
lfemur -48.4684 -17.3856 -3.40878
ltibia 31.1522
lfoot -12.0988 -7.77827
ltoes -31.455
435
root -13.077 17.873 0.514679 189.086 -58.881 -177.185
lowerback -10.8563 -0.517457 -0.854075
upperback 1.61962 -0.70169 1.50502
thorax 7.85282 -0.422374 1.9531
lowerneck -2.47367 -14.9244 -16.0691
upperneck 11.1805 -22.2542 17.6341
head 7.65405 -10.7717 5.94705
rclavicle 1.52319e-014 -3.45885e-014
rhumerus -36.1967 -6.26896 -75.8187
rradius 40.4141
rwrist 12.1916
rhand -18.0361 29.267
rfingers 7.12502
rthumb 8.23548 -0.552501
lclavicle 1.52319e-014 -3.45885e-014
lhumerus -32.2081 -0.0793226 86.0595
lradius 34.415
lwrist 16.5975
lhand -15.2537 34.3564
lfingers 7.12502
lthumb 10.9201 64.0525
rfemur -17.49 10.7972 25.0285
rtibia 37.2026
rfoot 18.0993 22.2019
rtoes 36.6973
lfemur -48.2281 -17.3582 -3.37435
ltibia 31.0881
lfoot -10.9826 -9.01937
ltoes -30.7051
436
root -13.1568 17.8718 0.491895 189.097 -57.4632 -177.173
lowerback -11.0279 -0.440536 -0.799076
upperback 1.71292 -0.606593 1.49752
thorax 8.04712 -0.375377 1.93103
lowerneck -2.56511 -14.8351 -15.9529
upperneck 11.1714 -22.1191 17.5976
head 7.62462 -10.7017 5.93707
rclavicle -8.36883e-014 6.36111e-015
rhumerus -36.0347 -6.11695 -75.9657
rradius 40.4825
rwrist 12.1532
rhand -18.1838 29.16
rfingers 7.12502
rthumb 8.09299 -0.665037
lclavicle -8.36883e-014 6.36111e-015
lhumerus -32.1704 0.0875804 85.8242
lradius 34.2015
lwrist 16.7577
lhand -15.2841 34.2879
lfingers 7.12502
lthumb 10.8908 63.9854
rfemur -17.3327 10.864 24.8639
rtibia 37.2868
rfoot 19.2021 22.4979
rtoes 37.3283
lfemur -48.001 -17.3486 -3.27436
ltibia 31.047
lfoot -9.87667 -10.3538
ltoes -30.2202
437
root -13.2389 17.8709 0.46744 189.208 -55.9516 -177.271
lowerback -11.1215 -0.385424 -0.809312
upperback 1.73589 -0.529516 1.47204
thorax 8.12234 -0.338326 1.92369
lowerneck -2.80292 -14.7136 -15.8343
upperneck 11.3697 -21.9437 17.4706
head 7.66876 -10.6045 5.89124
rclavicle 1.17556e-013 6.95746e-015
rhumerus -35.945 -6.00281 -76.0916
rradius 40.5644
rwrist 12.2971
rhand -18.2255 28.9678
rfingers 7.12502
rthumb 8.05273 -0.858765
lclavicle 1.17556e-013 6.95746e-015
lhumerus -32.3314 0.477073 85.4888
lradius 34.0346
lwrist 16.6602
lhand -15.1995 34.3657
lfingers 7.12502
lthumb 10.9724 64.059
rfemur -17.1012 10.9417 24.6115
rtibia 37.2945
rfoot 18.9666 22.8401
rtoes 39.0601
lfemur -47.7832 -17.5529 -3.08758
ltibia 31.111
lfoot -9.38472 -11.5657
ltoes -33.2576
438
root -13.3227 17.8716 0.441702 189.324 -54.4145 -177.442
lowerback -11.1209 -0.288275 -0.824029
upperback 1.74589 -0.391494 1.40282
thorax 8.12656 -0.269847 1.88333
lowerneck -2.9811 -14.6495 -15.8209
upperneck 11.5629 -21.8629 17.4017
head 7.73752 -10.557 5.86589
rclavicle -4.10242e-014 8.74653e-015
rhumerus -35.8315 -6.08964 -76.1753
rradius 40.4836
rwrist 12.4823
rhand -18.1428 28.9377
rfingers 7.12502
rthumb 8.13252 -0.885804
lclavicle -4.10242e-014 8.74653e-015
lhumerus -32.4681 0.609977 85.2052
lradius 33.819
lwrist 16.6639
lhand -15.0663 34.5413
lfingers 7.12502
lthumb 11.1008 64.2277
rfemur -16.7709 11.2108 24.3065
rtibia 37.2505
rfoot 20.5156 22.4886
rtoes 38.8886
lfemur -47.5113 -18.0795 -2.79887
ltibia 31.2618
lfoot -9.45296 -12.6329
ltoes -37.3145
439
root -13.4116 17.866 0.416064 189.399 -52.9092 -177.605
lowerback -11.1837 -0.189326 -0.813852
upperback 1.80624 -0.254927 1.33653
thorax 8.22174 -0.201978 1.83234
lowerneck -2.97521 -14.6009 -16.0419
upperneck 11.5999 -21.8369 17.5878
head 7.79292 -10.547 5.96005
rclavicle -3.37685e-014 -8.94531e-015
rhumerus -35.6097 -6.07053 -76.2871
rradius 40.2688
rwrist 12.3983
rhand -18.1437 29.0573
rfingers 7.12502
rthumb 8.13168 -0.766195
lclavicle -3.37685e-014 -8.94531e-015
lhumerus -32.526 0.656887 84.9623
lradius 33.5547
lwrist 16.7418
lhand -14.9682 34.5684
lfingers 7.12502
lthumb 11.1954 64.2497
rfemur -16.3748 11.5184 23.9802
rtibia 37.2101
rfoot 21.2969 22.6312
rtoes 39.0781
lfemur -47.1674 -18.4984 -2.64373
ltibia 31.4336
lfoot -8.61006 -13.9792
ltoes -36.1427
440
root -13.5033 17.8559 0.390303 189.171 -51.4288 -177.384
lowerback -11.2463 -0.1066 -0.607918
upperback 1.81537 -0.181639 1.41144
thorax 8.26436 -0.159781 1.80915
lowerneck -2.88689 -14.4903 -16.3391
upperneck 11.6434 -21.7196 17.7215
head 7.82129 -10.5038 6.0713
rclavicle -4.64659e-015 2.48481e-014
rhumerus -35.5316 -5.77721 -76.3441
rradius 40.2074
rwrist 12.1395
rhand -18.1485 28.7252
rfingers 7.12502
rthumb 8.12702 -1.09848
lclavicle -4.64659e-015 2.48481e-014
lhumerus -32.7729 1.00303 84.7734
lradius 33.2472
lwrist 16.5247
lhand -14.8191 34.5953
lfingers 7.12502
lthumb 11.3392 64.2687
rfemur -15.9391 11.9298 23.8633
rtibia 37.2251
rfoot 21.6606 22.4956
rtoes 39.617
lfemur -46.7693 -18.7654 -2.33677
ltibia 31.5776
lfoot -6.65596 -15.3523
ltoes -31.162
441
root -13.5928 17.859 0.363248 188.838 -49.9397 -177.064
lowerback -11.2227 -0.00743074 -0.300132
upperback 1.8255 -0.102102 1.49377
thorax 8.25828 -0.109761 1.73696
lowerneck -2.95713 -14.3859 -16.4417
upperneck 11.7721 -21.5736 17.656
head 7.8519 -10.4369 6.08416
rclavicle 8.78877e-014 -2.8625e-014
rhumerus -35.4936 -5.61137 -76.3557
rradius 40.1839
rwrist 12.065
rhand -18.1966 28.5226
rfingers 7.12502
rthumb 8.08057 -1.30293
lclavicle 8.78877e-014 -2.8625e-014
lhumerus -33.0207 1.42995 84.5899
lradius 32.8357
lwrist 16.1064
lhand -14.6971 34.6058
lfingers 7.12502
lthumb 11.4569 64.2728
rfemur -15.5966 12.3634 23.8523
rtibia 37.2945
rfoot 21.8895 22
rtoes 40.3325
lfemur -46.3005 -19.1341 -1.91064
ltibia 31.703
lfoot -4.21117 -16.3444
ltoes -24.7285
442
root -13.6824 17.8701 0.332735 188.814 -48.4147 -177.115
lowerback -11.2405 0.114544 -0.174107
upperback 1.86777 0.0477039 1.43296
thorax 8.3091 -0.0296348 1.62883
lowerneck -3.10497 -14.3435 -16.3443
upperneck 11.8914 -21.5012 17.5188
head 7.87478 -10.3961 6.02713
rclavicle -4.01297e-014 1.37161e-014
rhumerus -35.3997 -5.78168 -76.401
rradius 40.1021
rwrist 12.1604
rhand -18.5822 28.2703
rfingers 7.12502
rthumb 7.70842 -1.56917
lclavicle -4.01297e-014 1.37161e-014
lhumerus -33.1104 1.26609 84.4669
lradius 32.3865
lwrist 16.1223
lhand -14.619 34.7213
lfingers 7.12502
lthumb 11.5322 64.3841
rfemur -15.4108 12.7007 23.6142
rtibia 37.4012
rfoot 22.8549 21.7288
rtoes 40.7843
lfemur -45.7916 -19.4548 -1.81061
ltibia 31.8399
lfoot -1.73245 -16.7785
ltoes -16.4526
443
root -13.7747 17.8719 0.300801 189.046 -46.8069 -177.374
lowerback -11.1858 0.130502 -0.432455
upperback 1.73983 0.101628 1.48914
thorax 8.13764 -0.0159037 1.84249
lowerneck -3.24252 -14.2131 -16.217
upperneck 12.2134 -21.2859 17.0803
head 7.89493 -10.2981 5.8937
rclavicle 2.16178e-014 -3.27995e-014
rhumerus -35.5267 -5.56765 -76.3654
rradius 40.1793
rwrist 12.1871
rhand -18.9435 27.6087
rfingers 7.12502
rthumb 7.35972 -2.2433
lclavicle 2.16178e-014 -3.27995e-014
lhumerus -33.5183 1.18066 84.4791
lradius 32.0641
lwrist 16.4126
lhand -14.4961 35.0944
lfingers 7.12502
lthumb 11.6507 64.7505
rfemur -15.289 13.0825 23.1402
rtibia 37.5282
rfoot 24.2826 21.5951
rtoes 40.8253
lfemur -45.3414 -19.8223 -1.85081
ltibia 31.9786
lfoot -1.48822 -17.2894
ltoes -17.8097
444
root -13.8682 17.8533 0.271795 189.17 -45.171 -177.51
lowerback -11.2954 0.198853 -0.441974
upperback 1.7677 0.196149 1.46001
thorax 8.22749 0.0295976 1.83548
lowerneck -3.56409 -14.124 -15.9785
upperneck 12.5346 -21.122 16.7081
head 7.95413 -10.2068 5.74279
rclavicle -6.28657e-015 8.94531e-015
rhumerus -35.4647 -5.54934 -76.4492
rradius 40.2507
rwrist 12.221
rhand -18.8033 27.7432
rfingers 7.12502
rthumb 7.49504 -2.10405
lclavicle -6.28657e-015 8.94531e-015
lhumerus -33.6993 1.19918 84.3372
lradius 31.7164
lwrist 16.4479
lhand -14.3896 35.3517
lfingers 7.12502
lthumb 11.7535 65.0019
rfemur -15.032 13.4995 22.7171
rtibia 37.6364
rfoot 25.4389 21.6668
rtoes 40.8156
lfemur -44.9396 -20.2932 -1.77288
ltibia 32.1475
lfoot -1.797 -17.8664
ltoes -21.9414
